<?xml version="1.0" standalone="no"?>
<!DOCTYPE svg PUBLIC "-//W3C//DTD SVG 20010904//EN"
 "http://www.w3.org/TR/2001/REC-SVG-20010904/DTD/svg10.dtd">
<svg version="1.0" xmlns="http://www.w3.org/2000/svg"
 width="410.000000pt" height="410.000000pt" viewBox="0 0 410.000000 410.000000"
 preserveAspectRatio="xMidYMid meet">
<metadata>
Created by potrace 1.11, written by Peter Selinger 2001-2013
</metadata>
<g transform="translate(0.000000,410.000000) scale(0.100000,-0.100000)"
fill="#000000" stroke="none">
<path d="M2175 3956 c-140 -63 -138 -252 2 -312 128 -55 268 75 224 209 -31
92 -139 142 -226 103z"/>
<path d="M1554 3854 c-90 -44 -60 -177 43 -191 39 -5 46 -2 78 30 48 48 49 95
1 143 -38 38 -72 43 -122 18z"/>
<path d="M1200 3841 c-8 -6 -19 -7 -25 -4 -5 4 -7 2 -2 -2 6 -8 -42 -35 -60
-34 -3 1 -9 -3 -12 -8 -10 -14 -95 -66 -108 -66 -7 0 -10 -4 -7 -9 3 -4 1 -8
-4 -8 -23 0 -206 -153 -313 -261 -64 -65 -115 -119 -113 -121 2 -2 -14 -23
-35 -46 -21 -23 -37 -42 -34 -42 3 0 -8 -17 -24 -37 -37 -48 -61 -86 -92 -143
-13 -25 -29 -48 -35 -52 -6 -4 -7 -8 -2 -8 5 0 1 -9 -9 -20 -10 -11 -15 -20
-10 -20 4 0 1 -10 -7 -22 -8 -13 -23 -45 -33 -73 -10 -27 -23 -56 -29 -64 -6
-7 -11 -19 -11 -25 -2 -20 -18 -71 -26 -81 -4 -6 -10 -22 -13 -35 -3 -14 -12
-54 -21 -90 -9 -36 -18 -72 -20 -80 -2 -8 -4 -15 -5 -15 -3 0 -18 -94 -26
-165 -4 -30 -8 -68 -10 -85 -4 -41 -4 -240 0 -295 5 -57 14 -119 28 -195 6
-33 12 -69 14 -80 5 -38 56 -200 87 -280 29 -76 124 -274 137 -285 14 -12 49
-77 45 -83 -3 -4 -2 -5 2 -2 3 3 15 -10 26 -28 29 -48 96 -135 152 -195 28
-30 49 -60 47 -66 -2 -6 -1 -8 3 -4 4 4 26 -10 49 -32 86 -81 131 -120 139
-120 5 0 5 -6 1 -12 -4 -7 -4 -10 1 -6 4 4 29 -10 54 -31 98 -82 283 -183 471
-256 132 -52 179 -65 395 -111 99 -21 547 -22 582 -1 4 2 32 8 62 11 29 4 57
9 62 11 4 3 20 7 36 9 87 13 299 88 423 150 229 116 343 199 535 390 55 55
104 99 108 97 5 -1 6 2 3 7 -3 4 13 28 36 53 22 24 39 44 37 44 -2 0 15 27 38
60 22 33 49 78 61 101 11 22 28 46 36 53 9 7 14 17 11 21 -3 5 2 16 11 24 8 9
13 16 10 16 -8 0 46 104 56 108 5 2 6 8 3 13 -3 4 3 25 13 46 19 38 76 213 87
266 3 15 7 39 10 55 3 15 8 34 10 42 2 8 7 38 10 65 4 28 9 61 12 75 8 41 10
388 2 402 -12 19 -19 5 -23 -48 -8 -107 -19 -174 -43 -274 -29 -123 -72 -254
-84 -258 -5 -2 -7 -8 -4 -12 6 -10 -108 -239 -133 -266 -10 -10 -19 -23 -20
-29 -1 -5 -9 -18 -17 -28 -8 -9 -15 -21 -15 -25 0 -4 -14 -23 -32 -42 -17 -19
-31 -37 -30 -40 0 -3 -20 -29 -46 -59 -26 -29 -48 -57 -50 -62 -2 -5 -10 -9
-18 -9 -8 0 -14 -5 -14 -11 0 -7 -10 -20 -22 -31 -13 -11 -36 -32 -53 -47
-120 -108 -250 -197 -392 -269 -103 -53 -322 -137 -331 -127 -3 3 -10 1 -16
-4 -7 -6 -23 -12 -36 -15 -14 -3 -36 -8 -50 -11 -14 -3 -41 -7 -60 -10 -19 -2
-46 -7 -60 -10 -14 -3 -65 -8 -115 -11 -344 -24 -609 28 -937 183 -54 26 -98
51 -98 55 0 5 -4 7 -10 3 -5 -3 -18 3 -30 15 -11 11 -23 21 -27 21 -23 4 -52
23 -47 31 3 5 1 7 -4 6 -8 -3 -48 24 -96 65 -98 84 -126 109 -177 162 -92 94
-139 149 -139 163 0 6 -4 12 -8 12 -12 0 -135 198 -135 216 0 8 -4 14 -8 14
-7 0 -69 122 -69 135 0 3 -9 25 -21 49 -11 25 -21 51 -23 58 -1 7 -5 19 -9 26
-5 6 -6 12 -3 12 3 0 1 12 -5 28 -19 47 -50 174 -45 180 3 2 1 12 -3 21 -15
29 -33 176 -35 296 -3 171 26 376 76 533 12 37 23 70 24 75 1 4 3 9 4 12 1 3
3 8 5 13 14 51 19 62 27 62 5 0 7 4 3 9 -3 5 6 31 20 57 14 26 25 52 25 57 0
6 8 19 17 29 9 11 18 25 19 32 3 23 91 156 98 148 4 -4 6 -2 4 5 -4 15 11 37
106 152 101 121 190 202 329 301 26 18 47 37 47 42 0 10 -11 10 -30 -1z"/>
<path d="M2885 3777 c-90 -35 -140 -109 -140 -207 0 -83 34 -147 100 -186 81
-47 160 -45 238 7 112 74 127 238 30 335 -57 57 -156 79 -228 51z"/>
<path d="M3400 3191 c-19 -10 -48 -35 -65 -55 -26 -33 -30 -45 -30 -101 0 -56
4 -68 31 -102 44 -54 87 -74 151 -69 104 9 170 86 160 189 -10 117 -146 193
-247 138z"/>
<path d="M1228 3133 c-18 -16 -44 -38 -57 -50 -14 -12 -28 -20 -33 -17 -4 3
-8 0 -8 -5 0 -17 -33 -51 -49 -51 -8 0 -11 -3 -8 -6 4 -4 -6 -21 -21 -38 -15
-18 -36 -45 -47 -60 -11 -16 -28 -37 -37 -48 -10 -10 -16 -18 -13 -18 3 0 -7
-19 -22 -42 -67 -101 -151 -303 -168 -408 -3 -19 -8 -46 -10 -60 -28 -136 -22
-367 13 -494 6 -20 9 -36 7 -36 -2 0 13 -44 32 -97 19 -54 37 -108 40 -120 3
-13 10 -23 15 -23 6 0 8 -7 4 -15 -3 -8 -1 -15 4 -15 5 0 11 -9 15 -20 8 -24
111 -182 151 -230 16 -19 52 -58 80 -87 28 -29 48 -56 45 -59 -3 -4 -1 -5 4
-1 6 3 25 -7 42 -22 18 -15 48 -39 67 -52 20 -13 36 -27 36 -31 0 -5 4 -8 10
-8 5 0 33 -15 62 -33 29 -18 76 -43 105 -55 74 -32 107 -45 113 -47 3 -1 35
-11 72 -23 72 -23 167 -42 238 -47 108 -9 287 -4 365 9 55 10 244 70 294 94
31 14 58 27 61 27 3 0 16 8 30 17 14 9 32 18 40 20 8 2 20 8 26 14 7 6 36 26
66 45 29 19 66 45 83 59 41 34 152 149 178 184 12 16 29 36 37 45 8 9 21 29
29 44 8 15 18 27 21 27 4 0 13 14 20 30 7 17 17 30 22 30 5 0 6 4 3 10 -3 5
-2 10 2 10 7 0 19 22 38 70 1 3 7 19 14 35 22 50 72 198 77 225 2 14 9 50 15
80 19 93 26 266 15 350 -4 25 -9 63 -12 85 -14 110 -29 98 -29 -22 -1 -117
-10 -193 -36 -290 -22 -84 -57 -183 -72 -200 -5 -7 -6 -13 -2 -13 5 0 1 -8 -7
-17 -9 -10 -19 -29 -23 -43 -4 -14 -13 -28 -19 -32 -6 -4 -12 -12 -12 -18 -1
-5 -2 -14 -3 -19 0 -4 -15 -22 -31 -40 -17 -17 -28 -31 -24 -31 8 0 -29 -46
-87 -107 -27 -29 -53 -53 -59 -53 -5 0 -9 -4 -8 -9 4 -10 -90 -86 -157 -128
-107 -66 -252 -134 -295 -138 -9 0 -20 -4 -25 -7 -34 -21 -131 -36 -275 -44
-98 -5 -107 -4 -124 15 -46 51 -18 202 54 287 34 40 81 75 91 68 5 -3 9 0 9 5
0 21 91 9 120 -16 15 -13 31 -23 34 -23 3 0 17 18 32 39 32 48 35 111 8 161
-10 19 -17 38 -16 43 1 4 -1 6 -5 5 -14 -4 -73 32 -73 44 0 6 -3 9 -6 5 -3 -3
-16 -2 -28 3 -13 4 -49 11 -81 14 -51 6 -63 12 -95 45 -35 37 -38 37 -110 38
-50 1 -90 -5 -122 -17 -26 -10 -48 -17 -48 -15 0 12 -181 -93 -240 -140 -89
-70 -200 -214 -192 -247 1 -5 -2 -8 -6 -8 -5 0 -9 -6 -9 -12 0 -12 -38 -151
-51 -188 -8 -22 -11 -41 -18 -85 -3 -22 -8 -42 -11 -45 -6 -5 4 225 12 303 3
28 1 47 -5 47 -5 0 -10 7 -10 15 0 8 -7 15 -15 15 -8 0 -15 3 -15 8 0 4 -14
23 -31 42 -47 53 -109 138 -109 150 0 5 -4 10 -10 10 -5 0 -10 5 -10 11 0 6
-9 22 -20 36 -11 14 -17 29 -14 34 3 5 1 9 -4 9 -8 0 -15 13 -26 50 -1 3 -5
11 -9 18 -5 6 -5 12 -1 12 3 0 -1 11 -9 24 -20 29 -63 197 -75 286 -15 121 -3
334 23 396 7 18 11 34 9 37 -7 6 55 175 82 227 60 111 92 164 103 168 6 2 11
9 11 15 0 7 27 41 60 77 32 36 59 68 60 73 0 14 -19 7 -52 -20z"/>
<path d="M3638 2572 c-30 -18 -58 -67 -58 -102 0 -103 129 -156 202 -82 98 97
-27 257 -144 184z"/>
</g>
</svg>
